<?xml version="1.0" encoding="utf-8"?>
<!-- Generator: Adobe Illustrator 18.0.0, SVG Export Plug-In . SVG Version: 6.00 Build 0)  -->
<!DOCTYPE svg PUBLIC "-//W3C//DTD SVG 1.1//EN" "http://www.w3.org/Graphics/SVG/1.1/DTD/svg11.dtd">
<svg version="1.1" id="Layer_1" xmlns="http://www.w3.org/2000/svg" xmlns:xlink="http://www.w3.org/1999/xlink" x="0px" y="0px"
	 width="143px" height="143px" viewBox="0 0 143 143" enable-background="new 0 0 143 143" xml:space="preserve">
<path fill="#202526" d="M59,55.5h25c2,0,3.4,1.5,3.4,3.4v25c0,2-1.5,3.4-3.4,3.4H59c-2,0-3.4-1.5-3.4-3.4V59
	C55.6,57,57.1,55.5,59,55.5z M104.1,106.4H89.4c-1.4,0-2.4-1.1-2.4-2.4s1.1-2.4,2.4-2.4h12.2V89.3c0-1.4,1.1-2.4,2.4-2.4
	s2.4,1.1,2.4,2.4v14.7C106.5,105.3,105.4,106.5,104.1,106.4z M53.6,106.4H38.9c-1.4,0-2.4-1.1-2.4-2.4V89.3c0-1.4,1.1-2.4,2.4-2.4
	s2.4,1.1,2.4,2.4v12.2h12.2c1.4,0,2.4,1.1,2.4,2.4S55,106.4,53.6,106.4z M38.9,56c-1.4,0-2.4-1.1-2.4-2.4V39c0-1.4,1.1-2.4,2.4-2.4
	h14.7c1.4,0,2.4,1.1,2.4,2.4s-1.1,2.4-2.4,2.4H41.4v12.2C41.4,55,40.3,56,38.9,56z M104.1,56c-1.4,0-2.4-1.1-2.4-2.4V41.5H89.4
	C88,41.5,87,40.3,87,39s1.1-2.4,2.4-2.4h14.7c1.4,0,2.4,1.1,2.4,2.4v14.7C106.5,55,105.4,56,104.1,56z"/>
</svg>
